<?xml version="1.0" encoding="UTF-8"?>
<!--Generator: Apple Native CoreSVG 232.5-->
<!DOCTYPE svg
PUBLIC "-//W3C//DTD SVG 1.1//EN"
       "http://www.w3.org/Graphics/SVG/1.1/DTD/svg11.dtd">
<svg version="1.1" xmlns="http://www.w3.org/2000/svg" xmlns:xlink="http://www.w3.org/1999/xlink" width="23.583" height="23.2213">
 <g>
  <rect height="23.2213" opacity="0" width="23.583" x="0" y="0"/>
  <path d="M5.48057 12.7799C5.07232 12.7799 4.77774 12.4707 4.77774 12.0725C4.77774 11.6779 5.07232 11.3641 5.48057 11.3641L10.8949 11.3641L10.8949 4.18345C10.8949 3.77974 11.2087 3.47505 11.5932 3.47505C11.9969 3.47505 12.3107 3.77974 12.3107 4.18345L12.3107 12.0725C12.3107 12.4707 11.9969 12.7799 11.5932 12.7799ZM11.6033 23.2066C17.9543 23.2066 23.2168 17.9543 23.2168 11.6033C23.2168 5.25234 17.9442 0 11.5932 0C5.2478 0 0 5.25234 0 11.6033C0 17.9543 5.25791 23.2066 11.6033 23.2066Z" fill="#000000" fill-opacity="0.85"/>
 </g>
</svg>
