<?xml version="1.0" encoding="UTF-8"?>
<!--Generator: Apple Native CoreSVG 232.5-->
<!DOCTYPE svg
PUBLIC "-//W3C//DTD SVG 1.1//EN"
       "http://www.w3.org/Graphics/SVG/1.1/DTD/svg11.dtd">
<svg version="1.1" xmlns="http://www.w3.org/2000/svg" xmlns:xlink="http://www.w3.org/1999/xlink" width="13.8079" height="20.5994">
 <g>
  <rect height="20.5994" opacity="0" width="13.8079" x="0" y="0"/>
  <path d="M13.4466 8.28096L13.4466 16.0026C13.4466 17.5252 12.6687 18.3092 11.1198 18.3092L2.32676 18.3092C0.784668 18.3092 0 17.5313 0 16.0026L0 8.28096C0 6.74932 0.784668 5.97442 2.32676 5.97442L4.75908 5.97442L4.75908 7.06348L2.34629 7.06348C1.53115 7.06348 1.08535 7.49883 1.08535 8.33418L1.08535 15.9494C1.08535 16.7915 1.53115 17.2171 2.34629 17.2171L11.1003 17.2171C11.8966 17.2171 12.3612 16.7915 12.3612 15.9494L12.3612 8.33418C12.3612 7.49883 11.8966 7.06348 11.1003 7.06348L8.68077 7.06348L8.68077 5.97442L11.1198 5.97442C12.6687 5.97442 13.4466 6.75537 13.4466 8.28096Z" fill="#000000" fill-opacity="0.85"/>
  <path d="M6.71992 12.3695C7.01299 12.3695 7.2626 12.1267 7.2626 11.8403L7.2626 3.79327L7.21914 2.66075L7.81699 3.28858L9.04863 4.58086C9.14834 4.68731 9.28779 4.74356 9.41748 4.74356C9.69775 4.74356 9.91367 4.54111 9.91367 4.27129C9.91367 4.12139 9.85371 4.01797 9.74727 3.91826L7.10967 1.35176C6.97627 1.21836 6.86309 1.17188 6.71992 1.17188C6.5835 1.17188 6.46729 1.21836 6.33018 1.35176L3.68955 3.91826C3.58984 4.01797 3.52988 4.12139 3.52988 4.27129C3.52988 4.54111 3.73604 4.74356 4.01934 4.74356C4.14903 4.74356 4.29522 4.68731 4.3919 4.58086L5.62656 3.28858L6.22744 2.65772L6.18398 3.79327L6.18398 11.8403C6.18398 12.1267 6.43359 12.3695 6.71992 12.3695Z" fill="#000000" fill-opacity="0.85"/>
 </g>
</svg>
