<?xml version="1.0" encoding="UTF-8"?>
<!--Generator: Apple Native CoreSVG 232.5-->
<!DOCTYPE svg
PUBLIC "-//W3C//DTD SVG 1.1//EN"
       "http://www.w3.org/Graphics/SVG/1.1/DTD/svg11.dtd">
<svg version="1.1" xmlns="http://www.w3.org/2000/svg" xmlns:xlink="http://www.w3.org/1999/xlink" width="13.4492" height="17.499">
 <g>
  <rect height="17.499" opacity="0" width="13.4492" x="0" y="0"/>
  <path d="M1.42871 17.499L3.87793 17.499C4.8125 17.499 5.30664 17.0049 5.30664 16.0596L5.30664 1.42871C5.30664 0.451172 4.8125 0 3.87793 0L1.42871 0C0.494141 0 0 0.494141 0 1.42871L0 16.0596C0 17.0049 0.494141 17.499 1.42871 17.499ZM9.23828 17.499L11.6768 17.499C12.6221 17.499 13.1055 17.0049 13.1055 16.0596L13.1055 1.42871C13.1055 0.451172 12.6221 0 11.6768 0L9.23828 0C8.29297 0 7.79883 0.494141 7.79883 1.42871L7.79883 16.0596C7.79883 17.0049 8.29297 17.499 9.23828 17.499Z" fill="#000000" fill-opacity="0.85"/>
 </g>
</svg>
