<?xml version="1.0" encoding="UTF-8"?>
<!--Generator: Apple Native CoreSVG 232.5-->
<!DOCTYPE svg
PUBLIC "-//W3C//DTD SVG 1.1//EN"
       "http://www.w3.org/Graphics/SVG/1.1/DTD/svg11.dtd">
<svg version="1.1" xmlns="http://www.w3.org/2000/svg" xmlns:xlink="http://www.w3.org/1999/xlink" width="14.289" height="2.80703">
 <g>
  <rect height="2.80703" opacity="0" width="14.289" x="0" y="0"/>
  <path d="M12.526 2.79727C13.3023 2.79727 13.9276 2.1749 13.9276 1.39863C13.9276 0.622364 13.3023 0 12.526 0C11.7595 0 11.1273 0.622364 11.1273 1.39863C11.1273 2.1749 11.7595 2.79727 12.526 2.79727Z" fill="#000000" fill-opacity="0.85"/>
  <path d="M6.96231 2.79727C7.73858 2.79727 8.36094 2.1749 8.36094 1.39863C8.36094 0.622364 7.73858 0 6.96231 0C6.18906 0 5.56367 0.622364 5.56367 1.39863C5.56367 2.1749 6.18906 2.79727 6.96231 2.79727Z" fill="#000000" fill-opacity="0.85"/>
  <path d="M1.39863 2.79727C2.1749 2.79727 2.79727 2.1749 2.79727 1.39863C2.79727 0.622364 2.1749 0 1.39863 0C0.625391 0 0 0.622364 0 1.39863C0 2.1749 0.625391 2.79727 1.39863 2.79727Z" fill="#000000" fill-opacity="0.85"/>
 </g>
</svg>
