<?xml version="1.0" encoding="UTF-8"?>
<!--Generator: Apple Native CoreSVG 232.5-->
<!DOCTYPE svg
PUBLIC "-//W3C//DTD SVG 1.1//EN"
       "http://www.w3.org/Graphics/SVG/1.1/DTD/svg11.dtd">
<svg version="1.1" xmlns="http://www.w3.org/2000/svg" xmlns:xlink="http://www.w3.org/1999/xlink" width="21.751" height="15.5151">
 <g>
  <rect height="15.5151" opacity="0" width="21.751" x="0" y="0"/>
  <path d="M5.95041 14.9609L20.6358 14.9609C21.0597 14.9609 21.3955 14.6293 21.3955 14.2054C21.3955 13.7771 21.0597 13.4456 20.6358 13.4456L5.95041 13.4456C5.52221 13.4456 5.19066 13.7771 5.19066 14.2054C5.19066 14.6293 5.52221 14.9609 5.95041 14.9609Z" fill="#000000" fill-opacity="0.85"/>
  <path d="M1.314 15.5151C2.03301 15.5151 2.62377 14.9244 2.62377 14.2054C2.62377 13.4821 2.03301 12.8913 1.314 12.8913C0.590762 12.8913 0 13.4821 0 14.2054C0 14.9244 0.590762 15.5151 1.314 15.5151Z" fill="#000000" fill-opacity="0.85"/>
  <path d="M5.95041 8.52414L20.6358 8.52414C21.0597 8.52414 21.3955 8.18836 21.3955 7.7644C21.3955 7.34043 21.0597 7.00465 20.6358 7.00465L5.95041 7.00465C5.52221 7.00465 5.19066 7.34043 5.19066 7.7644C5.19066 8.18836 5.52221 8.52414 5.95041 8.52414Z" fill="#000000" fill-opacity="0.85"/>
  <path d="M1.314 9.0784C2.03301 9.0784 2.62377 8.48764 2.62377 7.7644C2.62377 7.04115 2.03301 6.45039 1.314 6.45039C0.590762 6.45039 0 7.04115 0 7.7644C0 8.48764 0.590762 9.0784 1.314 9.0784Z" fill="#000000" fill-opacity="0.85"/>
  <path d="M5.95041 2.08319L20.6358 2.08319C21.0597 2.08319 21.3955 1.75164 21.3955 1.32344C21.3955 0.899472 21.0597 0.567929 20.6358 0.567929L5.95041 0.567929C5.52221 0.567929 5.19066 0.899472 5.19066 1.32344C5.19066 1.75164 5.52221 2.08319 5.95041 2.08319Z" fill="#000000" fill-opacity="0.85"/>
  <path d="M1.314 2.63744C2.03301 2.63744 2.62377 2.04668 2.62377 1.32344C2.62377 0.604434 2.03301 0.0136719 1.314 0.0136719C0.590762 0.0136719 0 0.604434 0 1.32344C0 2.04668 0.590762 2.63744 1.314 2.63744Z" fill="#000000" fill-opacity="0.85"/>
 </g>
</svg>
