<?xml version="1.0" encoding="UTF-8"?>
<!--Generator: Apple Native CoreSVG 232.5-->
<!DOCTYPE svg
PUBLIC "-//W3C//DTD SVG 1.1//EN"
       "http://www.w3.org/Graphics/SVG/1.1/DTD/svg11.dtd">
<svg version="1.1" xmlns="http://www.w3.org/2000/svg" xmlns:xlink="http://www.w3.org/1999/xlink" width="11.0498" height="13.3547">
 <g>
  <rect height="13.3547" opacity="0" width="11.0498" x="0" y="0"/>
  <path d="M8.19317 13.3547C8.66133 13.3547 8.98301 13.0155 8.98301 12.5534L8.98301 0.838673C8.98301 0.383301 8.66133 0.00371099 8.17969 0.00371099C7.84961 0.00371099 7.61992 0.151563 7.26758 0.480665L3.97061 3.60215C3.91943 3.65332 3.84199 3.68262 3.75615 3.68262L1.52061 3.68262C0.554981 3.68262 0 4.2376 0 5.26387L0 8.13154C0 9.14805 0.554981 9.70977 1.52061 9.70977L3.75615 9.70977C3.84199 9.70977 3.91943 9.73535 3.97061 9.78653L7.26758 12.9151C7.58623 13.2136 7.86006 13.3547 8.19317 13.3547Z" fill="#000000" fill-opacity="0.85"/>
 </g>
</svg>
