<?xml version="1.0" encoding="UTF-8"?>
<!--Generator: Apple Native CoreSVG 232.5-->
<!DOCTYPE svg
PUBLIC "-//W3C//DTD SVG 1.1//EN"
       "http://www.w3.org/Graphics/SVG/1.1/DTD/svg11.dtd">
<svg version="1.1" xmlns="http://www.w3.org/2000/svg" xmlns:xlink="http://www.w3.org/1999/xlink" width="17.578" height="13.6311">
 <g>
  <rect height="13.6311" opacity="0" width="17.578" x="0" y="0"/>
  <path d="M0 10.6951C0 11.0461 0.258692 11.2748 0.633595 11.2748L2.37022 11.2748C3.60615 11.2748 4.31572 10.9219 5.21758 9.87657L9.76387 4.54971C10.4356 3.76817 10.9886 3.48262 11.8291 3.48262L13.3429 3.48262L13.3429 5.22656C13.3429 5.51084 13.5086 5.67285 13.7989 5.67285C13.9273 5.67285 14.0569 5.62637 14.1613 5.5378L17.0335 3.19492C17.2723 3.00498 17.2723 2.69854 17.0335 2.48838L14.1613 0.141797C14.0569 0.0599611 13.9273 0.0134766 13.7989 0.0134766C13.5086 0.0134766 13.3429 0.16875 13.3429 0.450001L13.3429 2.32324L11.8031 2.32324C10.5642 2.32324 9.84785 2.67617 8.94903 3.72149L4.40645 9.04834C3.72793 9.82988 3.19522 10.1222 2.4086 10.1222L0.633595 10.1222C0.264747 10.1222 0 10.36 0 10.6951ZM0 2.90596C0 3.24112 0.264747 3.48565 0.633595 3.48565L2.4086 3.48565C3.20195 3.48565 3.73467 3.77119 4.40645 4.55274L8.94903 9.87959C9.84785 10.9249 10.5642 11.2778 11.8031 11.2778L13.3429 11.2778L13.3429 13.1945C13.3429 13.4758 13.5086 13.6311 13.7989 13.6311C13.9273 13.6311 14.0569 13.5846 14.1613 13.5027L17.0335 11.1599C17.2723 10.9632 17.2723 10.6567 17.0335 10.4466L14.1613 8.10674C14.0569 8.01817 13.9273 7.97168 13.7989 7.97168C13.5086 7.97168 13.3429 8.12696 13.3429 8.41123L13.3429 10.1252L11.8291 10.1252C10.9886 10.1252 10.4356 9.83291 9.76387 9.05137L5.21758 3.72451C4.31572 2.6792 3.60615 2.32627 2.37022 2.32627L0.633595 2.32627C0.258692 2.32627 0 2.55498 0 2.90596Z" fill="#000000" fill-opacity="0.85"/>
 </g>
</svg>
