<?xml version="1.0" encoding="UTF-8"?>
<!--Generator: Apple Native CoreSVG 232.5-->
<!DOCTYPE svg
PUBLIC "-//W3C//DTD SVG 1.1//EN"
       "http://www.w3.org/Graphics/SVG/1.1/DTD/svg11.dtd">
<svg version="1.1" xmlns="http://www.w3.org/2000/svg" xmlns:xlink="http://www.w3.org/1999/xlink" width="22.1525" height="21.8107">
 <g>
  <rect height="21.8107" opacity="0" width="22.1525" x="0" y="0"/>
  <path d="M0 10.8985C0 14.0354 1.34066 16.8692 3.47662 18.8483C3.59734 18.969 3.73598 18.9648 3.83359 18.8346L4.2849 18.3371C4.38676 18.207 4.37309 18.0872 4.26699 17.9759C2.37248 16.2057 1.16621 13.6742 1.16621 10.8985C1.16621 5.59535 5.56801 1.17565 10.8985 1.17565C16.2333 1.17565 20.6309 5.59535 20.6309 10.8985C20.6309 13.6827 19.4161 16.2142 17.5131 17.9844C17.407 18.0957 17.3934 18.2197 17.4952 18.3498L17.9508 18.8474C18.0441 18.9775 18.1828 18.9818 18.3035 18.861C20.4522 16.8819 21.7971 14.0439 21.7971 10.8985C21.7971 4.92242 16.9157 0 10.8985 0C4.88565 0 0 4.92242 0 10.8985Z" fill="#000000" fill-opacity="0.85"/>
  <path d="M3.11719 10.8985C3.11719 13.1057 4.04769 15.0866 5.54531 16.501C5.66603 16.6269 5.8141 16.6132 5.91172 16.4925L6.35879 16.0087C6.47008 15.8879 6.45121 15.7545 6.34512 15.6338C5.08375 14.442 4.29707 12.7539 4.29707 10.8985C4.29707 7.29067 7.27699 4.29707 10.8985 4.29707C14.5243 4.29707 17.5 7.29067 17.5 10.8985C17.5 12.7624 16.7091 14.4547 15.4392 15.6371C15.3331 15.7578 15.3143 15.8912 15.4256 16.0162L15.8863 16.5095C15.9797 16.6302 16.1183 16.6439 16.239 16.5179C17.7451 15.0994 18.6799 13.11 18.6799 10.8985C18.6799 6.63141 15.193 3.11719 10.8985 3.11719C6.6083 3.11719 3.11719 6.63141 3.11719 10.8985Z" fill="#000000" fill-opacity="0.85"/>
  <path d="M6.23438 10.8985C6.23438 12.1666 6.7632 13.3178 7.614 14.14C7.72529 14.2659 7.86392 14.2617 7.97098 14.1315L8.43268 13.6571C8.54396 13.5364 8.53453 13.4029 8.43363 13.2822C7.80965 12.6835 7.41426 11.8285 7.41426 10.8985C7.41426 8.99965 8.99965 7.41426 10.8985 7.41426C12.8017 7.41426 14.3828 8.99965 14.3828 10.8985C14.3828 11.8327 13.9832 12.6962 13.3465 13.2949C13.2456 13.4157 13.2319 13.5491 13.3474 13.6783L13.8176 14.1485C13.9204 14.2786 14.0548 14.2786 14.1661 14.1475C15.0339 13.3399 15.5627 12.1751 15.5627 10.8985C15.5627 8.34039 13.4704 6.23438 10.8985 6.23438C8.33096 6.23438 6.23438 8.34039 6.23438 10.8985Z" fill="#000000" fill-opacity="0.85"/>
  <path d="M4.33699 21.4576L17.4346 21.4576C17.8892 21.4576 18.0529 20.9799 17.7737 20.6545L11.3069 13.3401C11.0801 13.0944 10.6821 13.0944 10.469 13.3401L4.00217 20.6545C3.71451 20.9841 3.88664 21.4576 4.33699 21.4576Z" fill="#000000" fill-opacity="0.85"/>
 </g>
</svg>
