<?xml version="1.0" encoding="UTF-8"?>
<!--Generator: Apple Native CoreSVG 232.5-->
<!DOCTYPE svg
PUBLIC "-//W3C//DTD SVG 1.1//EN"
       "http://www.w3.org/Graphics/SVG/1.1/DTD/svg11.dtd">
<svg version="1.1" xmlns="http://www.w3.org/2000/svg" xmlns:xlink="http://www.w3.org/1999/xlink" width="31.9088" height="16.6307">
 <g>
  <rect height="16.6307" opacity="0" width="31.9088" x="0" y="0"/>
  <path d="M13.121 16.6307C13.9005 16.6307 14.5709 16.031 14.5709 14.8961L14.5709 1.77051C14.5709 0.626173 13.9005 0.0263866 13.121 0.0263866C12.7113 0.0263866 12.3591 0.167344 11.9526 0.407832L0.986017 6.86137C0.299414 7.26455 0 7.74649 0 8.32645C0 8.90641 0.303653 9.39682 0.986017 9.8052L11.9526 16.2493C12.3549 16.4898 12.7113 16.6307 13.121 16.6307ZM27.6331 16.6307C28.4262 16.6307 29.0924 16.031 29.0924 14.8961L29.0924 1.77051C29.0924 0.626173 28.4262 0.0263866 27.6331 0.0263866C27.2275 0.0263866 26.8754 0.167344 26.4689 0.407832L15.5117 6.86137C14.8209 7.26455 14.5163 7.74649 14.5163 8.32645C14.5163 8.90641 14.8293 9.39682 15.5117 9.8052L26.4689 16.2493C26.8711 16.4898 27.2275 16.6307 27.6331 16.6307Z" fill="#000000" fill-opacity="0.85"/>
 </g>
</svg>
