<?xml version="1.0" encoding="UTF-8"?>
<!--Generator: Apple Native CoreSVG 232.5-->
<!DOCTYPE svg
PUBLIC "-//W3C//DTD SVG 1.1//EN"
       "http://www.w3.org/Graphics/SVG/1.1/DTD/svg11.dtd">
<svg version="1.1" xmlns="http://www.w3.org/2000/svg" xmlns:xlink="http://www.w3.org/1999/xlink" width="21.3139" height="20.9815">
 <g>
  <rect height="20.9815" opacity="0" width="21.3139" x="0" y="0"/>
  <path d="M20.9477 3.48355L20.9477 17.5217C20.9477 19.8056 19.7808 20.9815 17.4576 20.9815L3.49014 20.9815C1.177 20.9815 0 19.8147 0 17.5217L0 3.48355C0 1.19063 1.177 0.0237304 3.49014 0.0237304L17.4576 0.0237304C19.7808 0.0237304 20.9477 1.19971 20.9477 3.48355ZM7.02715 7.17334C6.99228 7.33096 6.97764 7.44917 6.97764 7.61236C6.97764 8.04082 7.27676 8.32427 7.69058 8.32427C8.07305 8.32427 8.31153 8.13076 8.42271 7.76294C8.66573 6.85532 9.44956 6.27451 10.5678 6.27451C11.8012 6.27451 12.5704 6.89722 12.5704 7.88613C12.5704 8.90537 11.7123 9.65537 10.5501 9.65537L9.76626 9.65537C9.37822 9.65537 9.10386 9.91963 9.10386 10.3178C9.10386 10.6957 9.37822 10.9701 9.76626 10.9701L10.6178 10.9701C11.976 10.9701 12.9366 11.7448 12.9366 12.8383C12.9366 13.9525 11.975 14.6924 10.5522 14.6924C9.25855 14.6924 8.48335 14.0565 8.20298 13.204C8.07261 12.8215 7.83867 12.6426 7.47085 12.6426C7.04692 12.6426 6.74326 12.9417 6.74326 13.3748C6.74326 13.5379 6.75791 13.6359 6.79731 13.7936C7.14888 15.1317 8.6502 16.043 10.5218 16.043C12.9598 16.043 14.5121 14.7362 14.5121 12.8889C14.5121 11.5336 13.4619 10.4193 12.0334 10.2773L12.0334 10.1985C13.2255 10.0192 14.1357 8.92866 14.1357 7.71182C14.1357 6.07969 12.6647 4.92393 10.5981 4.92393C8.74468 4.92393 7.31514 5.80942 7.02715 7.17334Z" fill="#000000" fill-opacity="0.85"/>
 </g>
</svg>
