<?xml version="1.0" encoding="UTF-8"?>
<!--Generator: Apple Native CoreSVG 232.5-->
<!DOCTYPE svg
PUBLIC "-//W3C//DTD SVG 1.1//EN"
       "http://www.w3.org/Graphics/SVG/1.1/DTD/svg11.dtd">
<svg version="1.1" xmlns="http://www.w3.org/2000/svg" xmlns:xlink="http://www.w3.org/1999/xlink" width="26.5904" height="22.7695">
 <g>
  <rect height="22.7695" opacity="0" width="26.5904" x="0" y="0"/>
  <path d="M18.8411 19.8195C18.8411 21.5486 20.1737 22.7493 22.0538 22.7493C23.7314 22.7493 26.2242 21.5294 26.2242 18.2082L26.2242 6.56265C26.2242 6.17666 25.9024 5.85938 25.5108 5.85938C25.1147 5.85938 24.7884 6.17666 24.7884 6.56265L24.7884 15.0001C24.7884 15.5956 24.5379 15.987 24.0248 16.0986L22.1937 16.4795C19.9125 16.9493 18.8411 18.0924 18.8411 19.8195Z" fill="#000000" fill-opacity="0.85"/>
  <path d="M10.3405 13.9601C10.3405 15.6892 11.673 16.8899 13.5532 16.8899C15.2307 16.8899 17.7236 15.67 17.7236 12.3488L17.7236 0.703273C17.7236 0.317286 17.3917 0 17.0102 0C16.6141 0 16.2877 0.317286 16.2877 0.703273L16.2877 9.14077C16.2877 9.73623 16.0373 10.1276 15.5241 10.2393L13.6931 10.6201C11.4119 11.0899 10.3405 12.2331 10.3405 13.9601Z" fill="#000000" fill-opacity="0.85"/>
  <path d="M0 19.8149C0 21.544 1.33257 22.7448 3.20816 22.7448C4.89024 22.7448 7.38311 21.5249 7.38311 18.2036L7.38311 6.55811C7.38311 6.17212 7.06128 5.85483 6.66519 5.85483C6.27363 5.85483 5.94727 6.17212 5.94727 6.55811L5.94727 14.9956C5.94727 15.5911 5.69678 15.9825 5.1791 16.0941L3.34805 16.475C1.07139 16.9447 0 18.0879 0 19.8149Z" fill="#000000" fill-opacity="0.85"/>
 </g>
</svg>
