<?xml version="1.0" encoding="UTF-8"?>
<!--Generator: Apple Native CoreSVG 232.5-->
<!DOCTYPE svg
PUBLIC "-//W3C//DTD SVG 1.1//EN"
       "http://www.w3.org/Graphics/SVG/1.1/DTD/svg11.dtd">
<svg version="1.1" xmlns="http://www.w3.org/2000/svg" xmlns:xlink="http://www.w3.org/1999/xlink" width="28.226" height="21.6622">
 <g>
  <rect height="21.6622" opacity="0" width="28.226" x="0" y="0"/>
  <path d="M3.60648 21.6622L24.2563 21.6622C26.657 21.6622 27.8628 20.447 27.8628 18.087L27.8628 3.5809C27.8628 1.22093 26.657 0.00575203 24.2563 0.00575203L3.60648 0.00575203C1.21624 0.00575203 0 1.21154 0 3.5809L0 18.087C0 20.4564 1.21624 21.6622 3.60648 21.6622ZM3.63675 19.9694C2.37329 19.9694 1.6823 19.2993 1.6823 18.0045L1.6823 3.66339C1.6823 2.35815 2.37329 1.6985 3.63675 1.6985L24.226 1.6985C25.4707 1.6985 26.1805 2.35815 26.1805 3.66339L26.1805 18.0045C26.1805 19.2993 25.4707 19.9694 24.226 19.9694Z" fill="#000000" fill-opacity="0.85"/>
  <path d="M4.97817 17.0064C4.97817 17.627 5.40199 18.0357 6.03774 18.0357L21.8402 18.0357C22.4759 18.0357 22.8997 17.627 22.8997 17.0064L22.8997 15.2911C22.8997 14.6705 22.4759 14.2618 21.8402 14.2618L6.03774 14.2618C5.40199 14.2618 4.97817 14.6705 4.97817 15.2911ZM13.9343 12.8146C14.3828 12.8146 14.765 12.4381 14.765 12.0048L14.765 8.29069L14.6929 6.19425L15.9851 7.52719L17.4864 9.02845C17.6409 9.18299 17.8477 9.27593 18.0534 9.27593C18.5066 9.27593 18.8261 8.96684 18.8261 8.52878C18.8261 8.27873 18.7155 8.08346 18.5317 7.91015L14.5478 4.15488C14.3305 3.95855 14.1504 3.87137 13.9343 3.87137C13.7124 3.87137 13.5474 3.95386 13.3255 4.15488L9.34147 7.91015C9.14727 8.08346 9.03662 8.27873 9.03662 8.52878C9.03662 8.96684 9.35616 9.27593 9.80935 9.27593C10.0151 9.27593 10.2218 9.18299 10.3868 9.02845L11.8776 7.52719L13.1699 6.19425L13.1082 8.29069L13.1082 12.0048C13.1082 12.4381 13.48 12.8146 13.9343 12.8146Z" fill="#000000" fill-opacity="0.85"/>
 </g>
</svg>
