<?xml version="1.0" encoding="UTF-8"?>
<!--Generator: Apple Native CoreSVG 232.5-->
<!DOCTYPE svg
PUBLIC "-//W3C//DTD SVG 1.1//EN"
       "http://www.w3.org/Graphics/SVG/1.1/DTD/svg11.dtd">
<svg version="1.1" xmlns="http://www.w3.org/2000/svg" xmlns:xlink="http://www.w3.org/1999/xlink" width="31.7109" height="16.8975">
 <g>
  <rect height="16.8975" opacity="0" width="31.7109" x="0" y="0"/>
  <path d="M3.67383 16.8975C4.11426 16.8975 4.47949 16.7578 4.90918 16.5L15.8555 10.0547C16.6182 9.60352 16.9512 9.07715 16.9512 8.4541C16.9512 7.8418 16.6182 7.31543 15.8555 6.86426L4.90918 0.418945C4.46875 0.161133 4.11426 0.0214844 3.67383 0.0214844C2.83594 0.0214844 2.12695 0.666016 2.12695 1.8584L2.12695 15.0605C2.12695 16.2529 2.83594 16.8975 3.67383 16.8975ZM18.4336 16.8975C18.874 16.8975 19.2393 16.7578 19.6689 16.5L30.626 10.0547C31.3779 9.60352 31.7109 9.07715 31.7109 8.4541C31.7109 7.8418 31.3779 7.31543 30.626 6.86426L19.6689 0.418945C19.2393 0.161133 18.874 0.0214844 18.4336 0.0214844C17.5957 0.0214844 16.8867 0.666016 16.8867 1.8584L16.8867 15.0605C16.8867 16.2529 17.5957 16.8975 18.4336 16.8975Z" fill="#000000" fill-opacity="0.85"/>
 </g>
</svg>
