<?xml version="1.0" encoding="UTF-8"?>
<!--Generator: Apple Native CoreSVG 232.5-->
<!DOCTYPE svg
PUBLIC "-//W3C//DTD SVG 1.1//EN"
       "http://www.w3.org/Graphics/SVG/1.1/DTD/svg11.dtd">
<svg version="1.1" xmlns="http://www.w3.org/2000/svg" xmlns:xlink="http://www.w3.org/1999/xlink" width="21.3139" height="20.9815">
 <g>
  <rect height="20.9815" opacity="0" width="21.3139" x="0" y="0"/>
  <path d="M20.9477 3.48355L20.9477 17.5217C20.9477 19.8056 19.7808 20.9815 17.4576 20.9815L3.49014 20.9815C1.177 20.9815 0 19.8147 0 17.5217L0 3.48355C0 1.19063 1.177 0.0237304 3.49014 0.0237304L17.4576 0.0237304C19.7808 0.0237304 20.9477 1.19971 20.9477 3.48355ZM9.90937 5.33775L7.72691 6.80757C7.48843 6.97734 7.39395 7.13599 7.39395 7.41489C7.39395 7.74331 7.65718 8.04698 7.9957 8.04698C8.15537 8.04698 8.27007 8.02222 8.50152 7.86153L10.1771 6.7626L10.256 6.7626L10.256 15.1077C10.256 15.6933 10.5652 16.043 11.0846 16.043C11.6243 16.043 11.9335 15.6933 11.9335 15.1077L11.9335 5.86831C11.9335 5.26348 11.6005 4.92393 11.0361 4.92393C10.637 4.92393 10.3626 5.02852 9.90937 5.33775Z" fill="#000000" fill-opacity="0.85"/>
 </g>
</svg>
