<?xml version="1.0" encoding="UTF-8"?>
<!--Generator: Apple Native CoreSVG 232.5-->
<!DOCTYPE svg
PUBLIC "-//W3C//DTD SVG 1.1//EN"
       "http://www.w3.org/Graphics/SVG/1.1/DTD/svg11.dtd">
<svg version="1.1" xmlns="http://www.w3.org/2000/svg" xmlns:xlink="http://www.w3.org/1999/xlink" width="21.3139" height="20.9815">
 <g>
  <rect height="20.9815" opacity="0" width="21.3139" x="0" y="0"/>
  <path d="M20.9477 3.48355L20.9477 17.5217C20.9477 19.8056 19.7808 20.9815 17.4576 20.9815L3.49014 20.9815C1.177 20.9815 0 19.8147 0 17.5217L0 3.48355C0 1.19063 1.177 0.0237304 3.49014 0.0237304L17.4576 0.0237304C19.7808 0.0237304 20.9477 1.19971 20.9477 3.48355ZM9.87627 5.83037C8.68359 7.61866 7.06157 10.0285 6.09272 11.5944C5.88252 11.9496 5.80371 12.2128 5.80371 12.5221C5.80371 13.1542 6.23672 13.5725 6.91729 13.5725L11.2066 13.5725L11.2066 14.9536C11.2066 15.4988 11.4957 15.8328 11.9848 15.8328C12.484 15.8328 12.773 15.5089 12.773 14.9536L12.773 13.5725L13.7583 13.5725C14.1721 13.5725 14.4611 13.2891 14.4611 12.8798C14.4611 12.466 14.1822 12.1871 13.7583 12.1871L12.773 12.1871L12.773 6.03501C12.773 5.38272 12.2591 4.92393 11.4921 4.92393C10.7681 4.92393 10.3037 5.18364 9.87627 5.83037ZM11.2066 12.1871L7.37154 12.1871L7.37154 12.1184C8.24195 10.6276 9.97192 8.06543 11.1278 6.31992L11.2066 6.31992Z" fill="#000000" fill-opacity="0.85"/>
 </g>
</svg>
