<?xml version="1.0" encoding="UTF-8"?>
<!--Generator: Apple Native CoreSVG 232.5-->
<!DOCTYPE svg
PUBLIC "-//W3C//DTD SVG 1.1//EN"
       "http://www.w3.org/Graphics/SVG/1.1/DTD/svg11.dtd">
<svg version="1.1" xmlns="http://www.w3.org/2000/svg" xmlns:xlink="http://www.w3.org/1999/xlink" width="21.3139" height="20.9815">
 <g>
  <rect height="20.9815" opacity="0" width="21.3139" x="0" y="0"/>
  <path d="M20.9477 3.48355L20.9477 17.5217C20.9477 19.8056 19.7808 20.9815 17.4576 20.9815L3.49014 20.9815C1.177 20.9815 0 19.8147 0 17.5217L0 3.48355C0 1.19063 1.177 0.0237304 3.49014 0.0237304L17.4576 0.0237304C19.7808 0.0237304 20.9477 1.19971 20.9477 3.48355ZM7.05952 7.2687C7.00444 7.43643 6.98979 7.56475 6.98979 7.71328C6.98979 8.12608 7.2687 8.39942 7.68706 8.39942C8.07407 8.39942 8.27769 8.16548 8.43941 7.84365C8.71934 7.05235 9.41572 6.27906 10.5996 6.27906C11.7769 6.27906 12.5537 6.95332 12.5537 7.98516C12.5537 8.84033 11.8934 9.56821 11.1615 10.343L7.33989 14.457C7.15093 14.6707 7.06099 14.8708 7.06099 15.0992C7.06099 15.5266 7.34443 15.8055 7.81231 15.8055L13.8557 15.8055C14.2695 15.8055 14.5686 15.5266 14.5686 15.1027C14.5686 14.6687 14.2695 14.41 13.8557 14.41L9.38628 14.41L9.38628 14.3312L12.2965 11.1917C13.3809 10.0361 14.0539 9.12378 14.0539 7.8583C14.0539 6.0999 12.6541 4.92393 10.5289 4.92393C8.87608 4.92393 7.40713 5.93672 7.05952 7.2687Z" fill="#000000" fill-opacity="0.85"/>
 </g>
</svg>
