<?xml version="1.0" encoding="UTF-8"?>
<!--Generator: Apple Native CoreSVG 232.5-->
<!DOCTYPE svg
PUBLIC "-//W3C//DTD SVG 1.1//EN"
       "http://www.w3.org/Graphics/SVG/1.1/DTD/svg11.dtd">
<svg version="1.1" xmlns="http://www.w3.org/2000/svg" xmlns:xlink="http://www.w3.org/1999/xlink" width="13.2955" height="12.9484">
 <g>
  <rect height="12.9484" opacity="0" width="13.2955" x="0" y="0"/>
  <path d="M0 6.47109C0 6.99394 0.433396 7.42733 0.956243 7.42733L5.51485 7.42733L5.51485 11.9859C5.51485 12.5008 5.94824 12.9422 6.47109 12.9422C6.99394 12.9422 7.41933 12.5008 7.41933 11.9859L7.41933 7.42733L11.9859 7.42733C12.5008 7.42733 12.9342 6.99394 12.9342 6.47109C12.9342 5.94824 12.5008 5.51485 11.9859 5.51485L7.41933 5.51485L7.41933 0.956243C7.41933 0.441403 6.99394 0 6.47109 0C5.94824 0 5.51485 0.441403 5.51485 0.956243L5.51485 5.51485L0.956243 5.51485C0.433396 5.51485 0 5.94824 0 6.47109Z" fill="#000000" fill-opacity="0.85"/>
 </g>
</svg>
