<?xml version="1.0" encoding="UTF-8"?>
<!--Generator: Apple Native CoreSVG 232.5-->
<!DOCTYPE svg
PUBLIC "-//W3C//DTD SVG 1.1//EN"
       "http://www.w3.org/Graphics/SVG/1.1/DTD/svg11.dtd">
<svg version="1.1" xmlns="http://www.w3.org/2000/svg" xmlns:xlink="http://www.w3.org/1999/xlink" width="22.0244" height="21.6732">
 <g>
  <rect height="21.6732" opacity="0" width="22.0244" x="0" y="0"/>
  <path d="M21.669 10.8298C21.669 16.7573 16.7573 21.6595 10.8298 21.6595C4.90738 21.6595 0 16.7573 0 10.8298C0 4.90219 4.89795 0 10.8203 0C16.7479 0 21.669 4.90219 21.669 10.8298ZM14.3972 10.8213C14.3972 11.6747 15.0855 12.3588 15.9347 12.3588C16.7787 12.3588 17.4765 11.6747 17.4765 10.8213C17.4765 9.96789 16.7787 9.28375 15.9347 9.28375C15.0855 9.28375 14.3972 9.96789 14.3972 10.8213ZM9.29223 10.8213C9.29223 11.6747 9.97637 12.3588 10.8298 12.3588C11.6832 12.3588 12.3767 11.6747 12.3767 10.8213C12.3767 9.96789 11.6832 9.28375 10.8298 9.28375C9.97637 9.28375 9.29223 9.96789 9.29223 10.8213ZM4.19248 10.8213C4.19248 11.6747 4.89029 12.3588 5.73426 12.3588C6.58342 12.3588 7.2718 11.6747 7.2718 10.8213C7.2718 9.96789 6.57399 9.28375 5.73426 9.28375C4.89029 9.28375 4.19248 9.96789 4.19248 10.8213Z" fill="#000000" fill-opacity="0.85"/>
 </g>
</svg>
