<?xml version="1.0" encoding="UTF-8"?>
<!--Generator: Apple Native CoreSVG 232.5-->
<!DOCTYPE svg
PUBLIC "-//W3C//DTD SVG 1.1//EN"
       "http://www.w3.org/Graphics/SVG/1.1/DTD/svg11.dtd">
<svg version="1.1" xmlns="http://www.w3.org/2000/svg" xmlns:xlink="http://www.w3.org/1999/xlink" width="28.226" height="21.6622">
 <g>
  <rect height="21.6622" opacity="0" width="28.226" x="0" y="0"/>
  <path d="M3.60648 21.6622L24.2563 21.6622C26.657 21.6622 27.8628 20.447 27.8628 18.087L27.8628 3.5809C27.8628 1.22093 26.657 0.00575203 24.2563 0.00575203L3.60648 0.00575203C1.21624 0.00575203 0 1.21154 0 3.5809L0 18.087C0 20.4564 1.21624 21.6622 3.60648 21.6622ZM3.63675 19.9694C2.37329 19.9694 1.6823 19.2993 1.6823 18.0045L1.6823 3.66339C1.6823 2.35815 2.37329 1.6985 3.63675 1.6985L24.226 1.6985C25.4707 1.6985 26.1805 2.35815 26.1805 3.66339L26.1805 18.0045C26.1805 19.2993 25.4707 19.9694 24.226 19.9694Z" fill="#000000" fill-opacity="0.85"/>
  <path d="M4.97817 17.0064C4.97817 17.627 5.40199 18.0357 6.03774 18.0357L21.8402 18.0357C22.4759 18.0357 22.8997 17.627 22.8997 17.0064L22.8997 15.2911C22.8997 14.6705 22.4759 14.2618 21.8402 14.2618L6.03774 14.2618C5.40199 14.2618 4.97817 14.6705 4.97817 15.2911ZM13.9343 3.87137C13.48 3.87137 13.1082 4.24313 13.1082 4.68118L13.1082 8.39528L13.1699 10.4917L11.8776 9.15877L10.3868 7.65282C10.2218 7.50297 10.0151 7.41003 9.80935 7.41003C9.35616 7.41003 9.03662 7.71443 9.03662 8.15718C9.03662 8.40724 9.14727 8.59781 9.34147 8.77112L13.3255 12.5311C13.5474 12.7321 13.7124 12.8146 13.9343 12.8146C14.1504 12.8146 14.3305 12.7274 14.5478 12.5311L18.5317 8.77112C18.7155 8.59781 18.8261 8.40724 18.8261 8.15718C18.8261 7.71443 18.5066 7.41003 18.0534 7.41003C17.8477 7.41003 17.6409 7.50297 17.4864 7.65282L15.9851 9.15877L14.6929 10.4917L14.765 8.39528L14.765 4.68118C14.765 4.24313 14.3828 3.87137 13.9343 3.87137Z" fill="#000000" fill-opacity="0.85"/>
 </g>
</svg>
