<?xml version="1.0" encoding="UTF-8"?>
<!--Generator: Apple Native CoreSVG 232.5-->
<!DOCTYPE svg
PUBLIC "-//W3C//DTD SVG 1.1//EN"
       "http://www.w3.org/Graphics/SVG/1.1/DTD/svg11.dtd">
<svg version="1.1" xmlns="http://www.w3.org/2000/svg" xmlns:xlink="http://www.w3.org/1999/xlink" width="23.0519" height="24.0717">
 <g>
  <rect height="24.0717" opacity="0" width="23.0519" x="0" y="0"/>
  <path d="M11.6127 23.2376C12.1654 23.2376 12.5908 22.8077 12.5908 22.2641L12.5908 13.7201L16.0381 10.5354C17.3645 10.7228 18.7758 10.1737 20.0319 8.91763L13.7587 2.63887C12.5026 3.89951 11.9944 5.26533 12.201 6.59175L1.51772 18.0887C1.09745 18.563 1.04838 19.1698 1.60751 19.7198L0.0867124 21.6402C-0.0335516 21.7954-0.0391181 22.0268 0.136224 22.2123L0.473138 22.5492C0.653021 22.7189 0.869819 22.7291 1.0497 22.584L2.97011 21.0542C3.48735 21.6178 4.12236 21.5733 4.58203 21.1429L10.6245 15.548L10.6245 22.2641C10.6245 22.8077 11.0645 23.2376 11.6127 23.2376ZM2.52788 18.9688L12.7553 8.10098C12.9548 8.4666 13.2007 8.81655 13.5189 9.15742C13.8269 9.48818 14.1587 9.77251 14.5041 9.96645L3.71205 20.1575ZM14.8232 1.57334L21.0918 7.84756C23.1431 5.81099 23.2163 3.29893 21.2817 1.38906C19.3718-0.51626 16.8699-0.467774 14.8232 1.57334Z" fill="#000000" fill-opacity="0.85"/>
 </g>
</svg>
