<?xml version="1.0" encoding="UTF-8"?>
<!--Generator: Apple Native CoreSVG 232.5-->
<!DOCTYPE svg
PUBLIC "-//W3C//DTD SVG 1.1//EN"
       "http://www.w3.org/Graphics/SVG/1.1/DTD/svg11.dtd">
<svg version="1.1" xmlns="http://www.w3.org/2000/svg" xmlns:xlink="http://www.w3.org/1999/xlink" width="20.6143" height="14.7394">
 <g>
  <rect height="14.7394" opacity="0" width="20.6143" x="0" y="0"/>
  <path d="M17.348 14.6325C17.5871 14.8057 17.9169 14.739 18.0938 14.4661C19.4155 12.5211 20.2529 10.1226 20.2529 7.36483C20.2529 4.60702 19.3953 2.21532 18.0938 0.263564C17.9169-0.0160266 17.5871-0.0759877 17.348 0.0971573C17.1014 0.270302 17.0616 0.589639 17.2482 0.872257C18.4299 2.65087 19.2147 4.82665 19.2147 7.36483C19.2147 9.89628 18.4299 12.0855 17.2482 13.8574C17.0616 14.14 17.1014 14.4594 17.348 14.6325Z" fill="#000000" fill-opacity="0.85"/>
  <path d="M14.5524 12.6019C14.8051 12.7683 15.1116 12.7182 15.2945 12.4551C16.2741 11.1279 16.8647 9.26102 16.8647 7.36483C16.8647 5.46864 16.2809 3.58827 15.2945 2.2746C15.1116 2.01151 14.8051 1.96132 14.5524 2.12772C14.3028 2.29716 14.2594 2.61044 14.4588 2.89306C15.3269 4.09687 15.8131 5.69804 15.8131 7.36483C15.8131 9.03163 15.3134 10.6261 14.4588 11.8366C14.2661 12.1192 14.3028 12.4325 14.5524 12.6019Z" fill="#000000" fill-opacity="0.85"/>
  <path d="M11.7855 10.6044C12.018 10.7573 12.3313 10.7108 12.5142 10.4508C13.1001 9.6786 13.4661 8.55653 13.4661 7.36483C13.4661 6.17313 13.1001 5.0578 12.5142 4.2789C12.3313 4.01884 12.018 3.97235 11.7855 4.13202C11.5188 4.32167 11.4723 4.65146 11.6821 4.93407C12.1619 5.58456 12.4145 6.43114 12.4145 7.36483C12.4145 8.29852 12.1552 9.13837 11.6821 9.79559C11.479 10.0849 11.5188 10.408 11.7855 10.6044Z" fill="#000000" fill-opacity="0.85"/>
  <path d="M8.19317 14.0471C8.65762 14.0471 8.98301 13.7079 8.98301 13.2458L8.98301 1.53104C8.98301 1.07567 8.65762 0.696082 8.17969 0.696082C7.84961 0.696082 7.61318 0.843934 7.26758 1.17304L3.96387 4.29452C3.9127 4.34569 3.84199 4.37499 3.75615 4.37499L1.52061 4.37499C0.554981 4.37499 0 4.92997 0 5.95624L0 8.82392C0 9.84042 0.554981 10.4021 1.52061 10.4021L3.75615 10.4021C3.84199 10.4021 3.9127 10.4277 3.96387 10.4789L7.26758 13.6075C7.58623 13.9059 7.86309 14.0471 8.19317 14.0471Z" fill="#000000" fill-opacity="0.85"/>
 </g>
</svg>
