<?xml version="1.0" encoding="UTF-8"?>
<!--Generator: Apple Native CoreSVG 232.5-->
<!DOCTYPE svg
PUBLIC "-//W3C//DTD SVG 1.1//EN"
       "http://www.w3.org/Graphics/SVG/1.1/DTD/svg11.dtd">
<svg version="1.1" xmlns="http://www.w3.org/2000/svg" xmlns:xlink="http://www.w3.org/1999/xlink" width="15.3234" height="20.7615">
 <g>
  <rect height="20.7615" opacity="0" width="15.3234" x="0" y="0"/>
  <path d="M0 10.3734C0 10.7985 0.163475 11.168 0.495405 11.5066L9.39258 20.3241C9.66767 20.6112 10.0307 20.7495 10.4388 20.7495C11.2749 20.7495 11.9221 20.105 11.9221 19.2741C11.9221 18.8607 11.7559 18.4939 11.4677 18.1963L3.56804 10.3708L11.4677 2.55057C11.7586 2.25291 11.9221 1.87411 11.9221 1.47538C11.9221 0.644526 11.2749 0 10.4388 0C10.028 0 9.66767 0.13828 9.39258 0.425388L0.495405 9.24024C0.166112 9.57891 0.00263661 9.9457 0 10.3734Z" fill="#000000" fill-opacity="0.85"/>
 </g>
</svg>
