<?xml version="1.0" encoding="UTF-8"?>
<!--Generator: Apple Native CoreSVG 232.5-->
<!DOCTYPE svg
PUBLIC "-//W3C//DTD SVG 1.1//EN"
       "http://www.w3.org/Graphics/SVG/1.1/DTD/svg11.dtd">
<svg version="1.1" xmlns="http://www.w3.org/2000/svg" xmlns:xlink="http://www.w3.org/1999/xlink" width="23.7829" height="23.2471">
 <g>
  <rect height="23.2471" opacity="0" width="23.7829" x="0" y="0"/>
  <path d="M6.36317 23.2471C6.83334 23.2471 7.15874 23.0005 7.71053 22.5043L11.4509 19.2104L18.7031 19.2104C21.7443 19.2104 23.4274 17.481 23.4274 14.486L23.4274 6.06703C23.4274 3.07207 21.7443 1.34272 18.7031 1.34272L4.72432 1.34272C1.68315 1.34272 0 3.06359 0 6.06703L0 14.486C0 17.4895 1.68315 19.2104 4.72432 19.2104L5.32 19.2104L5.32 22.0455C5.32 22.7812 5.70104 23.2471 6.36317 23.2471ZM6.74612 21.5262L6.74612 18.4034C6.74612 17.8861 6.55088 17.6909 6.03354 17.6909L4.7328 17.6909C2.58672 17.6909 1.5195 16.5534 1.5195 14.4776L1.5195 6.07551C1.5195 4.00491 2.58672 2.87164 4.7328 2.87164L18.6946 2.87164C20.8238 2.87164 21.9079 4.00491 21.9079 6.07551L21.9079 14.4776C21.9079 16.5534 20.8238 17.6909 18.6946 17.6909L11.4136 17.6909C10.8802 17.6909 10.602 17.7738 10.2238 18.1582Z" fill="#000000" fill-opacity="0.85"/>
  <path d="M6.52313 9.15893C6.52313 10.3724 7.30147 11.2956 8.50131 11.2956C8.96424 11.2956 9.41445 11.2027 9.70061 10.8397L9.78688 10.8397C9.39463 11.7806 8.51977 12.3562 7.8493 12.5349C7.47305 12.6358 7.35848 12.806 7.35848 13.0446C7.35848 13.3063 7.56971 13.5175 7.85873 13.5175C8.89178 13.5175 11.0986 12.2686 11.0986 9.55541C11.0986 8.07652 10.118 6.99686 8.76819 6.99686C7.49055 6.99686 6.52313 7.89824 6.52313 9.15893ZM12.3341 9.15893C12.3341 10.3724 13.103 11.2956 14.3123 11.2956C14.7658 11.2956 15.2254 11.2027 15.5116 10.8397L15.6021 10.8397C15.2141 11.7806 14.3255 12.3562 13.6603 12.5349C13.2882 12.6358 13.1694 12.806 13.1694 13.0446C13.1694 13.3063 13.3712 13.5175 13.6697 13.5175C14.707 13.5175 16.9001 12.2686 16.9001 9.55541C16.9001 8.07652 15.9332 6.99686 14.5791 6.99686C13.3015 6.99686 12.3341 7.89824 12.3341 9.15893Z" fill="#000000" fill-opacity="0.85"/>
 </g>
</svg>
